<svg xmlns="http://www.w3.org/2000/svg" width="275" height="185" fill="none"><path fill="#000" d="m5.96 182-5.12-5.12V7.92L5.96 2.8h51.2l2.56 2.56v46.08L62.28 54h2.56l2.56-2.56V5.36l2.56-2.56h51.2l5.12 5.12v168.96l-5.12 5.12h-51.2l-2.56-2.56V94.96l-2.56-2.56h-2.56l-2.56 2.56v84.48L57.16 182H5.96Zm177.8 2.56c-12.8 0-24.747-2.389-35.84-7.168-11.093-4.779-20.907-11.349-29.44-19.712-8.363-8.533-14.933-18.347-19.712-29.44S91.6 105.2 91.6 92.4c0-12.8 2.39-24.747 7.168-35.84 4.779-11.093 11.349-20.821 19.712-29.184 8.363-8.533 18.005-15.19 28.928-19.968C158.501 2.629 170.277.24 182.736.24c15.36 0 29.013 3.072 40.96 9.216 11.947 5.973 20.395 13.995 25.344 24.064v5.12l-2.56 5.12-67.584 43.008-1.28 2.816 2.56 2.816h89.344l5.12 5.12v5.12c0 9.899-2.304 19.712-6.912 29.44-4.608 9.728-11.093 18.603-19.456 26.624-8.192 7.851-17.835 14.165-28.928 18.944-10.923 4.608-22.784 6.912-35.584 6.912Z"/></svg>